<svg id="レイヤー_1" data-name="レイヤー 1" xmlns="http://www.w3.org/2000/svg" viewBox="0 0 1321 585"><defs><style>.cls-1,.cls-2{fill:#fff;stroke:#000;stroke-miterlimit:10;}.cls-1{stroke-width:4px;}</style></defs><path class="cls-1" d="M1265.81,161.67A55.85,55.85,0,0,0,1278,126.81c-.32-30.54-27.55-58-61.52-57.31a60.9,60.9,0,0,0-52.4,31.92c-20-42.95-70.1-74-110.86-54.44-27.67,13.26-57.65,53-56.17,94.88a87.63,87.63,0,0,0,3.68,22.06,67.17,67.17,0,0,0-15.23-1.42c-39.09.8-69.33,34.88-70,72-.74,40.89,34.54,77.52,76,75a68.84,68.84,0,0,0,40.21-16.36c13.82,18.33,31.1,30.36,36.26,33.95,4.43,3.09,54.47,36.45,106.84,0A172.69,172.69,0,0,0,1198.15,308c13.77,10.87,30.8,17.06,48.93,15.9,40.66-2.6,72.3-41.24,71.92-83.74C1318.68,205.06,1296.63,172.86,1265.81,161.67Z" transform="translate(0 0.5)"/><path class="cls-1" d="M425.5,150.5c.36,37.55-29.12,71.7-67,74a66.68,66.68,0,0,1-24.7-3.17c-10.3,24.69-33.54,43.48-61.3,45.17-27.28,1.66-51.88-13.63-65.31-35.93-11.76,20-32.51,34.46-56.69,35.93-41.46,2.52-76.74-34.11-76-75,.67-37.12,30.91-71.2,70-72A67.27,67.27,0,0,1,164.16,122a71,71,0,0,1-2.66-20.51c.67-37.12,30.91-71.2,70-72s70.44,31.78,72.85,69.08A69.7,69.7,0,0,1,352.5,77.5C392.81,76.68,425.13,111.6,425.5,150.5Z" transform="translate(0 0.5)"/><line class="cls-2" y1="0.5" y2="0.5"/><path class="cls-1" d="M773.5,473.5c0,38.67-31.24,73.72-71,74A67.73,67.73,0,0,1,665.83,537c-12.22,21.77-34.89,37.33-61.33,37.52-19.61.14-37.16-8.21-50-21.27-12.9,17.35-33,29.11-56,29.27-26.21.19-48.75-14.79-61.32-35.93a67.1,67.1,0,0,1-10.68.93c-41,.29-73-36.53-72-76,1-37.51,31.63-71.73,71-72,.72,0,1.43,0,2.14,0,6-33,34.37-60.79,69.86-61,24.74-.17,46.28,13.12,59.2,32.45,12.89-15.75,32-26.3,53.8-26.45,34.77-.23,63.21,26.1,70.29,58.41a67.18,67.18,0,0,1,20.71-3.41C741.73,399.23,773.49,434.54,773.5,473.5Z" transform="translate(0 0.5)"/></svg>