<svg id="レイヤー_1" data-name="レイヤー 1" xmlns="http://www.w3.org/2000/svg" viewBox="0 0 219.72 137.53"><defs><style>.cls-1,.cls-2{fill:#fff;}.cls-1,.cls-2,.cls-3{stroke:#000;stroke-miterlimit:10;}.cls-2{stroke-width:2px;}.cls-3{fill:#f2f2f2;}</style></defs><path class="cls-1" d="M225.65,252.5" transform="translate(-218.58 -395.13)"/><path class="cls-1" d="M596.65,205.5" transform="translate(-218.58 -395.13)"/><path class="cls-1" d="M727.65,416.5" transform="translate(-218.58 -395.13)"/><path class="cls-1" d="M587.65,422.5" transform="translate(-218.58 -395.13)"/><path class="cls-1" d="M673.41,503.5" transform="translate(-218.58 -395.13)"/><path class="cls-1" d="M727.65,416.5" transform="translate(-218.58 -395.13)"/><path class="cls-1" d="M220.5,175.5" transform="translate(-218.58 -395.13)"/><path class="cls-1" d="M206.5,485.5" transform="translate(-218.58 -395.13)"/><polygon class="cls-2" points="1.92 1.08 217.42 9.87 172.92 54.96 172.92 99.9 144.92 73.08 91.42 135.87 1.92 1.08"/><polygon class="cls-3" points="144.92 73.08 1.92 1.08 172.92 54.96 172.92 99.9 144.92 73.08"/><line class="cls-2" x1="172.92" y1="99.9" x2="137.23" y2="82.1"/></svg>