<svg xmlns="http://www.w3.org/2000/svg" xmlns:xlink="http://www.w3.org/1999/xlink" viewBox="0 0 217.58 217.64"><defs><style>.cls-1,.cls-5{fill:#fff;}.cls-1,.cls-2,.cls-3{stroke:#000;stroke-miterlimit:10;}.cls-2{fill:#ffe766;}.cls-3{fill:#ff6;}.cls-4{fill:#8c6239;}.cls-5{font-size:85px;font-family:Apple-Chancery, Apple Chancery;}</style><symbol id="portfolio_icon" data-name="portfolio icon" viewBox="0 0 217.58 217.64"><path class="cls-1" d="M142.82,23.82"/><path class="cls-1" d="M158.65,4.27"/><path class="cls-1" d="M110.82,13.82"/><path class="cls-2" d="M109.31,216.82c5.16-6.56,13.57-19.44,13-36-.51-14.46-7.85-31.19-14.16-31s-11.8,17.31-11.81,31C96.31,197.13,104,209.81,109.31,216.82Z"/><path class="cls-2" d="M108.32.82c-5.17,6.57-13.56,19.45-13,36,.52,14.46,7.87,31.18,14.18,31s11.78-17.31,11.79-31C121.33,20.51,113.59,7.83,108.32.82Z"/><path class="cls-2" d="M216.76,110.44c-6.39-5.38-19-14.21-35.55-14.17-14.47,0-31.43,6.81-31.45,13.13s16.9,12.36,30.59,12.82C196.64,122.78,209.58,115.47,216.76,110.44Z"/><path class="cls-2" d="M.82,110.32c6.57,5.17,19.45,13.56,36,13,14.46-.51,31.18-7.87,31-14.18s-17.31-11.78-31-11.79C20.51,97.31,7.83,105.05.82,110.32Z"/><path class="cls-3" d="M150.72,9.66c-7.36,4-20.2,12.42-26.27,27.83-5.3,13.47-5.24,31.74.63,34.08s17.71-11.16,23.19-23.72C154.78,32.91,152.75,18.19,150.72,9.66Z"/><path class="cls-2" d="M183.3,32.14c-8.26,1.28-23.18,5-34,17.49C139.77,60.56,133.74,77.8,138.49,82s20.42-4.63,29.77-14.64C179.38,55.42,182.37,40.86,183.3,32.14Z"/><path class="cls-2" d="M33.35,187c8.26-1.26,23.19-4.92,34.09-17.4C77,158.7,83,141.47,78.29,137.3s-20.44,4.57-29.81,14.56C37.32,163.75,34.3,178.29,33.35,187Z"/><path class="cls-3" d="M67.61,209.77c7.27-4.12,19.91-12.86,25.64-28.41,5-13.58,4.53-31.84-1.38-34.06S74.4,158.86,69.21,171.53C63,186.62,65.39,201.29,67.61,209.77Z"/><path class="cls-3" d="M208.55,67.77c-8.05-2.23-23.17-5-38.22,2-13.13,6.07-25.71,19.32-23.09,25.06s20.52,4.17,33.15-1.12C195.43,87.38,204.13,75.33,208.55,67.77Z"/><path class="cls-3" d="M8.88,154c8.16,1.79,23.41,3.75,38.06-4,12.8-6.76,24.66-20.65,21.74-26.25S48,120.68,35.63,126.63C21,133.72,12.9,146.21,8.88,154Z"/><path class="cls-3" d="M149.53,207.75c2.41-8,5.52-23.06-1.07-38.26-5.76-13.28-18.71-26.16-24.51-23.68s-4.66,20.42.34,33.17C130.23,194.16,142.07,203.15,149.53,207.75Z"/><path class="cls-2" d="M186,186.07c-1-8.3-4.1-23.35-16.2-34.67-10.57-9.89-27.57-16.56-31.91-12s3.85,20.59,13.51,30.3C162.84,181.28,177.27,184.82,186,186.07Z"/><path class="cls-3" d="M206.26,153.38c-3.48-7.59-11.11-20.94-26.11-28-13.11-6.14-31.34-7.23-34.05-1.53s10,18.39,22.2,24.65C182.8,156,197.62,154.87,206.26,153.38Z"/><path class="cls-2" d="M33.62,32.69C34.27,41,36.82,56.18,48.48,68,58.66,78.24,75.4,85.55,79.91,81.13S76.85,60.42,67.57,50.34C56.53,38.35,42.24,34.27,33.62,32.69Z"/><path class="cls-3" d="M67.37,10.48c-2.22,8.05-5,23.18,2,38.22C75.41,61.84,88.66,74.41,94.4,71.8s4.18-20.53-1.12-33.16C87,23.61,74.94,14.9,67.37,10.48Z"/><path class="cls-3" d="M7.6,68c4,7.34,12.5,20.15,27.94,26.15C49,99.35,67.3,99.21,69.62,93.34S58.38,75.67,45.8,70.25C30.83,63.79,16.12,65.88,7.6,68Z"/><path class="cls-4" d="M107.32,156.82c-26.19,0-47.5-21.08-47.5-47s21.31-47,47.5-47h.51a35.82,35.82,0,0,1,5.16.33c16.87,2.39,41.83,18.88,41.83,46.67a47.65,47.65,0,0,1-47.5,47Z"/><path d="M107.83,63.32a34.87,34.87,0,0,1,5.09.33c9.52,1.35,19.79,6.66,27.49,14.21,6.34,6.23,13.91,16.84,13.91,32a47.16,47.16,0,0,1-47,46.5c-25.92,0-47-20.86-47-46.5s21.08-46.5,47-46.5h.51m0-1h-.51c-26.51,0-48,21.27-48,47.5s21.49,47.5,48,47.5c26.76,0,48-22.14,48-47.5,0-26.85-23.82-44.55-42.26-47.16a35.49,35.49,0,0,0-5.23-.34Z"/><text class="cls-5" transform="translate(67.16 137.32)">K</text></symbol></defs><g id="レイヤー_2" data-name="レイヤー 2"><g id="レイヤー_1-2" data-name="レイヤー 1"><use width="217.58" height="217.64" xlink:href="#portfolio_icon"/></g></g></svg>