<svg id="レイヤー_1" data-name="レイヤー 1" xmlns="http://www.w3.org/2000/svg" xmlns:xlink="http://www.w3.org/1999/xlink" viewBox="0 0 217.58 217.64"><defs><style>.cls-1{fill:none;}.cls-2{fill:#fff;}.cls-2,.cls-3,.cls-4{stroke:#000;stroke-miterlimit:10;}.cls-3{fill:#cdf7f7;}.cls-4{fill:#f7e2e4;}.cls-5{fill:#8c6239;}.cls-6{clip-path:url(#clip-path);}</style><clipPath id="clip-path" transform="translate(1.84 0)"><rect class="cls-1" x="-1.84" width="217.58" height="217.64"/></clipPath><symbol id="portfolio_icon" data-name="portfolio icon" viewBox="0 0 217.58 217.64"><path class="cls-2" d="M142.82,193.82"/><path class="cls-2" d="M158.65,213.37"/><path class="cls-2" d="M110.82,203.82"/><path class="cls-3" d="M109.31.82c5.16,6.56,13.57,19.44,13,36-.51,14.46-7.85,31.19-14.16,31s-11.8-17.31-11.81-31C96.31,20.51,104,7.83,109.31.82Z"/><path class="cls-3" d="M108.32,216.82c-5.17-6.57-13.56-19.45-13-36,.52-14.46,7.87-31.18,14.18-31s11.78,17.31,11.79,31C121.33,197.13,113.59,209.81,108.32,216.82Z"/><path class="cls-3" d="M216.76,107.2c-6.39,5.38-19,14.21-35.55,14.17-14.47,0-31.43-6.81-31.45-13.13s16.9-12.36,30.59-12.82C196.64,94.86,209.58,102.17,216.76,107.2Z"/><path class="cls-3" d="M.82,107.32c6.57-5.17,19.45-13.56,36-13,14.46.51,31.18,7.87,31,14.18s-17.31,11.78-31,11.79C20.51,120.33,7.83,112.59.82,107.32Z"/><path class="cls-4" d="M150.72,208c-7.36-4-20.2-12.42-26.27-27.83-5.3-13.47-5.24-31.74.63-34.08s17.71,11.16,23.19,23.72C154.78,184.73,152.75,199.45,150.72,208Z"/><path class="cls-3" d="M183.3,185.5c-8.26-1.28-23.18-5-34-17.49-9.53-10.93-15.56-28.17-10.81-32.37s20.42,4.63,29.77,14.64C179.38,162.22,182.37,176.78,183.3,185.5Z"/><path class="cls-3" d="M33.35,30.64C41.61,31.9,56.54,35.56,67.44,48,77,58.94,83,76.17,78.29,80.34S57.85,75.77,48.48,65.78C37.32,53.89,34.3,39.35,33.35,30.64Z"/><path class="cls-4" d="M67.61,7.87C74.88,12,87.52,20.73,93.25,36.28c5,13.58,4.53,31.84-1.38,34.06S74.4,58.78,69.21,46.11C63,31,65.39,16.35,67.61,7.87Z"/><path class="cls-4" d="M208.55,149.87c-8.05,2.23-23.17,5-38.22-2-13.13-6.07-25.71-19.32-23.09-25.06s20.52-4.17,33.15,1.12C195.43,130.26,204.13,142.31,208.55,149.87Z"/><path class="cls-4" d="M8.88,63.64c8.16-1.79,23.41-3.75,38.06,4C59.74,74.4,71.6,88.29,68.68,93.89S48,97,35.63,91C21,83.92,12.9,71.43,8.88,63.64Z"/><path class="cls-4" d="M149.53,9.89c2.41,8,5.52,23.06-1.07,38.26C142.7,61.43,129.75,74.31,124,71.83s-4.66-20.42.34-33.17C130.23,23.48,142.07,14.49,149.53,9.89Z"/><path class="cls-3" d="M186,31.57c-1,8.3-4.1,23.35-16.2,34.67-10.57,9.89-27.57,16.56-31.91,12s3.85-20.59,13.51-30.3C162.84,36.36,177.27,32.82,186,31.57Z"/><path class="cls-4" d="M206.26,64.26c-3.48,7.59-11.11,20.94-26.11,28C167,98.4,148.81,99.49,146.1,93.79s10-18.39,22.2-24.65C182.8,61.64,197.62,62.77,206.26,64.26Z"/><path class="cls-3" d="M33.62,185c.65-8.31,3.2-23.49,14.86-35.31,10.18-10.24,26.92-17.55,31.43-13.13s-3.06,20.71-12.34,30.79C56.53,179.29,42.24,183.37,33.62,185Z"/><path class="cls-4" d="M67.37,207.16c-2.22-8-5-23.18,2-38.22,6-13.14,19.29-25.71,25-23.1s4.18,20.53-1.12,33.16C87,194,74.94,202.74,67.37,207.16Z"/><path class="cls-4" d="M7.6,149.64c4-7.34,12.5-20.15,27.94-26.15,13.46-5.2,31.76-5.06,34.08.81S58.38,142,45.8,147.39C30.83,153.85,16.12,151.76,7.6,149.64Z"/><path class="cls-5" d="M107.32,60.82c-26.19,0-47.5,21.08-47.5,47s21.31,47,47.5,47h.51a37.05,37.05,0,0,0,5.16-.33c16.87-2.39,41.83-18.88,41.83-46.67A47.64,47.64,0,0,0,107.32,60.82Z"/><path d="M107.83,154.32a36.16,36.16,0,0,0,5.09-.33c9.52-1.35,19.79-6.66,27.49-14.21,6.34-6.23,13.91-16.84,13.91-32a47.15,47.15,0,0,0-47-46.5c-25.92,0-47,20.86-47,46.5s21.08,46.5,47,46.5h.51m0,1h-.51c-26.51,0-48-21.27-48-47.5s21.49-47.5,48-47.5c26.76,0,48,22.14,48,47.5,0,26.85-23.82,44.55-42.26,47.16A36.56,36.56,0,0,1,107.83,155.28Z"/></symbol></defs><g class="cls-6"><use width="217.58" height="217.64" transform="matrix(1, 0, 0, -1, 0, 217.64)" xlink:href="#portfolio_icon"/></g></svg>