<?xml version="1.0" encoding="utf-8"?>
<!-- Generator: Adobe Illustrator 26.0.3, SVG Export Plug-In . SVG Version: 6.00 Build 0)  -->
<svg version="1.1" id="レイヤー_1" xmlns="http://www.w3.org/2000/svg" xmlns:xlink="http://www.w3.org/1999/xlink" x="0px"
	 y="0px" viewBox="0 0 367.1 62.7" style="enable-background:new 0 0 367.1 62.7;" xml:space="preserve">
<style type="text/css">
	.st0{fill:#FFFFFF;stroke:#000000;stroke-miterlimit:10;}
	.st1{fill:#FFE766;stroke:#000000;stroke-miterlimit:10;}
	.st2{fill:#FFFF66;stroke:#000000;stroke-miterlimit:10;}
	.st3{fill:#8C6239;}
	.st4{clip-path:url(#SVGID_00000175298579460255600430000007918190283997996946_);}
	.st5{clip-path:url(#SVGID_00000138536031912500625320000014859198705797781906_);}
	.st6{fill:#17439A;}
	.st7{font-family:'Apple-Chancery';}
	.st8{font-size:40px;}
</style>
<symbol  id="portfolio_icon" viewBox="-108.8 -108.8 217.6 217.6">
	<path class="st0" d="M34-85"/>
	<path class="st0" d="M49.9-104.5"/>
	<path class="st0" d="M2-95"/>
	<path class="st1" d="M0.5,108c5.2-6.6,13.6-19.4,13-36C13,57.5,5.7,40.8-0.6,41s-11.8,17.3-11.8,31C-12.5,88.3-4.8,101,0.5,108z"/>
	<path class="st1" d="M-0.5-108c-5.2,6.6-13.6,19.5-13,36c0.5,14.5,7.9,31.2,14.2,31s11.8-17.3,11.8-31C12.5-88.3,4.8-101-0.5-108z"
		/>
	<path class="st1" d="M108,1.6c-6.4-5.4-19-14.2-35.6-14.2C58-12.5,41-5.7,41,0.6s16.9,12.4,30.6,12.8C87.9,14,100.8,6.7,108,1.6z"
		/>
	<path class="st1" d="M-108,1.5c6.6,5.2,19.5,13.6,36,13C-57.5,14-40.8,6.6-41,0.3s-17.3-11.8-31-11.8C-88.3-11.5-101-3.8-108,1.5z"
		/>
	<path class="st2" d="M41.9-99.2c-7.4,4-20.2,12.4-26.3,27.8c-5.3,13.5-5.2,31.7,0.6,34.1C22.2-34.9,34-48.4,39.5-61
		C46-75.9,44-90.6,41.9-99.2z"/>
	<path class="st1" d="M74.5-76.7c-8.3,1.3-23.2,5-34,17.5C31-48.3,25-31,29.7-26.8s20.4-4.6,29.8-14.6C70.6-53.4,73.6-68,74.5-76.7z
		"/>
	<path class="st1" d="M-75.4,78.2c8.3-1.3,23.2-4.9,34.1-17.4c9.6-10.9,15.6-28.2,10.9-32.3S-50.9,33.1-60.3,43
		C-71.5,54.9-74.5,69.5-75.4,78.2z"/>
	<path class="st2" d="M-41.2,101c7.3-4.1,19.9-12.9,25.6-28.4c5-13.6,4.5-31.8-1.4-34.1S-34.4,50-39.6,62.7
		C-45.8,77.8-43.4,92.5-41.2,101z"/>
	<path class="st2" d="M99.8-41c-8.1-2.2-23.2-5-38.2,2C48.4-33,35.8-19.7,38.5-14S59-9.8,71.6-15.1C86.6-21.4,95.3-33.5,99.8-41z"/>
	<path class="st2" d="M-99.9,45.2c8.2,1.8,23.4,3.8,38.1-4c12.8-6.8,24.7-20.6,21.7-26.2s-20.7-3.1-33,2.9
		C-87.8,24.9-95.9,37.4-99.9,45.2z"/>
	<path class="st2" d="M40.7,98.9c2.4-8,5.5-23.1-1.1-38.3C33.9,47.4,21,34.5,15.2,37s-4.7,20.4,0.3,33.2
		C21.4,85.3,33.3,94.3,40.7,98.9z"/>
	<path class="st1" d="M77.2,77.3c-1-8.3-4.1-23.4-16.2-34.7c-10.6-9.9-27.6-16.6-31.9-12S33,51.2,42.6,60.9
		C54.1,72.5,68.5,76,77.2,77.3z"/>
	<path class="st2" d="M97.5,44.6C94,37,86.4,23.6,71.4,16.6C58.2,10.4,40,9.3,37.3,15c-2.7,5.7,10,18.4,22.2,24.6
		C74,47.2,88.8,46.1,97.5,44.6z"/>
	<path class="st1" d="M-75.2-76.2c0.7,8.4,3.2,23.5,14.9,35.4c10.2,10.2,26.9,17.5,31.4,13.1s-3.1-20.7-12.3-30.8
		C-52.3-70.5-66.5-74.5-75.2-76.2z"/>
	<path class="st2" d="M-41.4-98.3c-2.2,8-5,23.2,2,38.2c6,13.1,19.3,25.7,25,23.1s4.2-20.5-1.1-33.2C-21.8-85.2-33.8-93.9-41.4-98.3
		z"/>
	<path class="st2" d="M-101.2-40.8c4,7.3,12.5,20.2,27.9,26.2c13.5,5.2,31.8,5.1,34.1-0.8S-50.4-33.2-63-38.6
		C-78-45-92.7-42.9-101.2-40.8z"/>
	<path class="st3" d="M-1.5,48C-27.7,48-49,26.9-49,1s21.3-47,47.5-47H-1c1.7,0,3.4,0.1,5.2,0.3C21.1-43.3,46-26.8,46,1
		C45.7,27,24.5,47.9-1.5,48z"/>
	<path d="M-1-45.5c1.7,0,3.4,0.1,5.1,0.3c9.5,1.3,19.8,6.7,27.5,14.2C38-24.7,45.5-14.1,45.5,1c-0.4,25.7-21.3,46.4-47,46.5
		c-25.9,0-47-20.9-47-46.5s21.1-46.5,47-46.5L-1-45.5 M-1-46.5h-0.5c-26.5,0-48,21.3-48,47.5s21.5,47.5,48,47.5
		c26.8,0,48-22.1,48-47.5c0-26.8-23.8-44.6-42.3-47.2C2.5-46.4,0.8-46.5-1-46.5z"/>
	<text transform="matrix(1 0 0 1 -41.6299 28.501)" class="st7" style="fill:#FFFFFF; font-size:85px;">K</text>
</symbol>
<g id="レイヤー_1-2">
	<g>
		<defs>
			<rect id="SVGID_1_" y="0.9" width="58.8" height="60.9"/>
		</defs>
		<clipPath id="SVGID_00000120538742101995570900000002542470689332108442_">
			<use xlink:href="#SVGID_1_"  style="overflow:visible;"/>
		</clipPath>
		<g style="clip-path:url(#SVGID_00000120538742101995570900000002542470689332108442_);">
			<g>
				<defs>
					<rect id="SVGID_00000160900026936960113450000007502707265457686700_" y="0.9" width="58.8" height="60.9"/>
				</defs>
				<clipPath id="SVGID_00000145033316033687018070000008177919203696031658_">
					<use xlink:href="#SVGID_00000160900026936960113450000007502707265457686700_"  style="overflow:visible;"/>
				</clipPath>
				<g style="clip-path:url(#SVGID_00000145033316033687018070000008177919203696031658_);">
					<g>
						<defs>
							<rect id="SVGID_00000106138225372433237570000008111616916796892581_" y="0.9" width="58.7" height="60.9"/>
						</defs>
						<clipPath id="SVGID_00000063632293506614698490000010189082827786275756_">
							<use xlink:href="#SVGID_00000106138225372433237570000008111616916796892581_"  style="overflow:visible;"/>
						</clipPath>
						
							<g transform="matrix(1 0 0 1 0 -1.907349e-06)" style="clip-path:url(#SVGID_00000063632293506614698490000010189082827786275756_);">
							
								<use xlink:href="#portfolio_icon"  width="217.6" height="217.6" x="-108.8" y="-108.8" transform="matrix(0.27 0 0 0.28 29.3732 31.3443)" style="overflow:visible;"/>
						</g>
					</g>
				</g>
			</g>
		</g>
	</g>
	<g>
		<text transform="matrix(1 0 0 1 65.79 44.975)" class="st6 st7 st8">Kouki ‘s  </text>
		<text transform="matrix(1 0 0 1 223.56 44.975)" class="st6 st7 st8">P</text>
		<text transform="matrix(1 0 0 1 249.83 44.975)" class="st6 st7 st8">ortfolio</text>
	</g>
</g>
</svg>
